# xmcd CD database file
#
# Track frame offsets:
#	187
#	9437
#	21087
#	30712
#	39637
#	54150
#	62025
#	72587
#	86475
#	96825
#	107062
#	118137
#	126937
#	137062
#	147187
#	157950
#	168300
#	184650
#	194375
#	204550
#	215912
#	227675
#	239437
#	249662
#	262650
#	272262
#	289837
#	303512
#	315212
#
# Disc length: 4349 seconds
#
# Revision: 0
# Processed by: cddbd v1.4PL0 Copyright (c) Steve Scherf et al.
# Submitted via: CDex 1.50beta8
#
DISCID=9b10fb1d
DTITLE=HANK WILLIAMS - THE IMMORTAL HANK WILLIAMS Disc5
DYEAR=1988
DGENRE=Country
TTITLE0=ALONE AND FORSAKEN
TTITLE1=THE BATTLE OF ARMAGEDDON
TTITLE2=BLUE LOVE(IN MY HEART)
TTITLE3=FADED LOVE AND WINTER ROSES
TTITLE4=THE FIRST FALL OF SNOW
TTITLE5=I WISH I HAD A NICKEL
TTITLE6=LEAVE ME ALONE WITH THE BLUES
TTITLE7=LITTLE PAPER BOY
TTITLE8=NO ONE WILL EVER KNOW
TTITLE9=PLEASE DON'T LET ME LOVE YOU
TTITLE10=THE PRODIGAL SON
TTITLE11=READY TO GO HOME
TTITLE12=SINGING WATERFALL
TTITLE13=SOMEDAY YOU'LL CALL MY NAME
TTITLE14=THANKS GOD
TTITLE15=THERE'S NO ROOM IN MY HEART
TTITLE16=THY BURDENS ARE GREATER THAN MINE
TTITLE17=THE WALTZ OF THE WIND
TTITLE18=WITH TEARS IN MY EYES
TTITLE19=A HOUSE OF GOLD
TTITLE20=A TEARDROP ON A ROSE
TTITLE21=THE ANGELS OF DEATH
TTITLE22=ARE YOU BUILDING A TEMPLE IN HEAVEN
TTITLE23=ARE YOU WALKING AND A TALKING WITH THE LOAD
TTITLE24=CALIFORNIA ZEPHYR
TTITLE25=COOL WATER
TTITLE26=THE DEVIL'S TRAIN
TTITLE27=DIXIE CANNONBALL
TTITLE28=FIRST YEAR BLUES
EXTD=YEAR: 1988
EXTT0=
EXTT1=
EXTT2=
EXTT3=
EXTT4=
EXTT5=
EXTT6=
EXTT7=
EXTT8=
EXTT9=
EXTT10=
EXTT11=
EXTT12=
EXTT13=
EXTT14=
EXTT15=
EXTT16=
EXTT17=
EXTT18=
EXTT19=
EXTT20=
EXTT21=
EXTT22=
EXTT23=
EXTT24=
EXTT25=
EXTT26=
EXTT27=
EXTT28=
PLAYORDER=
